<svg width="30" height="30" viewBox="0 0 30 30" fill="none" xmlns="http://www.w3.org/2000/svg">
<path fill-rule="evenodd" clip-rule="evenodd" d="M11.3384 8.85072C11.8792 8.05499 11.985 7.48214 11.4659 6.3687C10.6941 4.71466 7.98295 0.751896 6.23933 0.131871C5.43343 -0.154553 4.62802 0.0365571 3.67393 0.598815C0.863645 2.25382 -0.144326 4.74499 0.0163722 7.92791C0.561013 18.7085 11.3042 29.4391 22.0767 29.9835C25.2575 30.1448 27.7474 29.1358 29.402 26.3245C29.9634 25.3699 30.1545 24.5636 29.8682 23.7578C29.249 22.0128 25.2878 19.3002 23.6351 18.5285C22.5218 18.0086 21.9492 18.115 21.1544 18.6556C18.4697 20.4829 18.5029 22.8441 15.2283 20.7241C12.7726 19.1341 10.8601 17.2365 9.27142 14.7799C7.15252 11.5036 9.51247 11.5364 11.3384 8.85072Z" fill="#0970C5"/>
</svg>
