<svg viewBox="0 0 13 13" fill="none" xmlns="http://www.w3.org/2000/svg">
<path fill-rule="evenodd" clip-rule="evenodd" d="M4.91329 3.83531C5.14763 3.4905 5.1935 3.24226 4.96854 2.75977C4.63412 2.04302 3.45928 0.325821 2.70371 0.0571442C2.35449 -0.0669729 2.00547 0.0158414 1.59204 0.259487C0.374246 0.976654 -0.0625412 2.05616 0.00709463 3.43543C0.243106 8.10703 4.89849 12.7569 9.56659 12.9929C10.9449 13.0627 12.0239 12.6255 12.7409 11.4073C12.9842 10.9936 13.0669 10.6442 12.9429 10.295C12.6746 9.53886 10.9581 8.3634 10.2419 8.02901C9.75944 7.80373 9.51134 7.84983 9.16691 8.08408C8.00353 8.87593 8.01792 9.89911 6.59893 8.98044C5.5348 8.29143 4.70605 7.46913 4.01762 6.40464C3.09942 4.98491 4.12207 4.99909 4.91329 3.83531Z" fill="white"/>
</svg>
